<?xml version="1.0" encoding="UTF-8" standalone="no"?>
<svg width="142px" height="99px" viewBox="0 0 142 99" version="1.1" xmlns="http://www.w3.org/2000/svg" xmlns:xlink="http://www.w3.org/1999/xlink" xmlns:sketch="http://www.bohemiancoding.com/sketch/ns">
    <!-- Generator: Sketch 3.3.3 (12081) - http://www.bohemiancoding.com/sketch -->
    <title>marioribeiro-logo</title>
    <desc>Created with Sketch.</desc>
    <defs></defs>
    <g id="logo" stroke="none" stroke-width="1" fill="none" fill-rule="evenodd" sketch:type="MSPage">
        <path class="logotype" d="M53.6186759,94.1882671 C57.5010272,98.0706184 63.7629198,98.1545683 67.5122241,94.1882671 C67.9879323,93.6850266 67.68317,93.9895664 68.9471056,92.6358557 L116.629586,44.9533754 C117.138513,44.5361221 118.809054,42.4557596 118.809054,42.4557596 C119.733119,40.9506391 120.267624,39.1806029 120.272173,37.286046 L120.29659,10.9413825 C120.29659,5.45090854 115.845681,1 110.355207,1 L75.5603686,1 C72.2085924,1 69.6304488,2.97274309 67.4434062,5.20012223 L60.7311397,11.9123887 C60.7311397,11.9123887 53.9419878,5.07258506 52.2486306,3.42987966 C50.3425649,1.67008057 48.2014414,1 45.7362211,1 L10.9413825,1 C5.45090854,1 1,5.45090854 1,10.9413825 L1,87.1586481 C1,92.6491221 5.45090854,97.1000306 10.9413825,97.1000306 L29.1672504,97.1000306 C34.3787416,97.1000306 38.6536284,93.0899507 39.0746053,87.9870967 L39.1086328,79.6370506 C39.1086328,79.6370506 53.4362936,94.0058848 53.6186759,94.1882671 L53.6186759,94.1882671 L53.6186759,94.1882671 Z M141,97.0479858 L119.392883,75.440869 C114.864024,70.9120093 107.520091,70.9117014 102.990681,75.4411113 C98.4602755,79.9715171 98.4611629,87.3140372 102.990439,91.8433133 L108.278722,97.131596 L139.706682,97.131596 C140.145006,97.131596 140.576692,97.1031446 141,97.0479858 L141,97.0479858 L141,97.0479858 Z" id="marioribeiro-logo" stroke="#1ABC9C" stroke-width="2" stroke-linecap="round" stroke-linejoin="round" sketch:type="MSShapeGroup"></path>
    </g>
</svg>
